<svg width="12" height="12" viewBox="0 0 12 12" fill="none" xmlns="http://www.w3.org/2000/svg">
<path d="M11.3433 0.242391L5.02577 6.58322C4.95335 6.54127 4.87719 6.50611 4.79827 6.47822L0.627435 5.06656C0.501303 5.03495 0.389349 4.9621 0.309355 4.85958C0.229361 4.75706 0.185913 4.63076 0.185913 4.50072C0.185913 4.37069 0.229361 4.24439 0.309355 4.14187C0.389349 4.03935 0.501303 3.9665 0.627435 3.93489L10.9758 0.254058C11.0434 0.231089 11.1143 0.219268 11.1858 0.219058C11.2392 0.218197 11.2924 0.226079 11.3433 0.242391Z" fill="#84829A"/>
<path d="M11.7459 1.02424L8.06503 11.3842C8.02444 11.505 7.94545 11.6091 7.84012 11.6807C7.73479 11.7524 7.6089 11.7875 7.4817 11.7809C7.35303 11.7868 7.22602 11.7499 7.1205 11.6761C7.01498 11.6022 6.93687 11.4955 6.89836 11.3726L5.51003 7.20174C5.48214 7.12282 5.44699 7.04666 5.40503 6.97424L11.7575 0.656738C11.7934 0.777293 11.7893 0.906199 11.7459 1.02424V1.02424Z" fill="#84829A"/>
</svg>
