<svg width="18" height="18" viewBox="0 0 18 18" fill="none" xmlns="http://www.w3.org/2000/svg">
<path d="M17.0682 1.76033L10.1932 16.7603C10.1357 16.886 10.0381 16.989 9.9158 17.0533C9.79348 17.1177 9.6533 17.1396 9.51718 17.1158C9.38106 17.092 9.25667 17.0237 9.16346 16.9217C9.07026 16.8197 9.0135 16.6896 9.00206 16.5519L8.42081 9.57896L1.44789 8.99771C1.31017 8.98627 1.18013 8.92951 1.0781 8.8363C0.976073 8.7431 0.90781 8.61871 0.88399 8.48258C0.860169 8.34646 0.882135 8.20628 0.94645 8.08397C1.01077 7.96166 1.11381 7.86411 1.23945 7.80658L16.2394 0.93158C16.3554 0.878438 16.4848 0.862048 16.6104 0.884614C16.7359 0.907179 16.8515 0.967618 16.9417 1.05781C17.0319 1.14801 17.0924 1.26365 17.1149 1.38919C17.1375 1.51474 17.1213 1.64437 17.0682 1.76033Z" fill="#080809"/>
</svg>
