<svg width="24" height="18" viewBox="0 0 24 18" fill="none" xmlns="http://www.w3.org/2000/svg">
<path d="M20.8184 17.9286C20.3682 17.9378 19.926 17.809 19.5512 17.5595C19.2723 17.3772 18.9462 17.2802 18.613 17.2802C18.2797 17.2802 17.9537 17.3772 17.6747 17.5595C17.2961 17.8006 16.8566 17.9286 16.4077 17.9286C15.9589 17.9286 15.5194 17.8006 15.1408 17.5595C14.8618 17.377 14.5357 17.2799 14.2023 17.2799C13.869 17.2799 13.5429 17.377 13.2639 17.5595C12.8853 17.8006 12.4458 17.9286 11.9969 17.9286C11.5481 17.9286 11.1086 17.8006 10.7299 17.5595C10.4512 17.3772 10.1253 17.28 9.79216 17.28C9.45904 17.28 9.13315 17.3772 8.85438 17.5595C8.5111 17.7876 8.1105 17.9144 7.69848 17.9253L7.67578 17.2767C7.98012 17.2695 8.27566 17.1732 8.52584 16.9997C8.90435 16.7587 9.34376 16.6307 9.79248 16.6307C10.2412 16.6307 10.6806 16.7587 11.0591 16.9997C11.3381 17.1821 11.6641 17.2792 11.9974 17.2792C12.3307 17.2792 12.6567 17.1821 12.9357 16.9997C13.3143 16.7585 13.754 16.6304 14.203 16.6304C14.6519 16.6304 15.0916 16.7585 15.4703 16.9997C15.7492 17.1821 16.0753 17.2792 16.4085 17.2792C16.7418 17.2792 17.0679 17.1821 17.3468 16.9997C17.7255 16.7588 18.165 16.6308 18.6138 16.6308C19.0626 16.6308 19.5021 16.7588 19.8808 16.9997C20.1604 17.1825 20.4872 17.2799 20.8213 17.2799C21.1554 17.2799 21.4822 17.1825 21.7618 16.9997C22.1362 16.751 22.5776 16.6224 23.027 16.6313V17.2799C22.6924 17.2708 22.3636 17.3686 22.0884 17.5592C21.7127 17.809 21.2695 17.9379 20.8184 17.9286Z" fill="white"/>
<path d="M3.17837 17.9287C2.7283 17.938 2.28619 17.8092 1.91156 17.5596C1.63643 17.3689 1.30761 17.2709 0.972961 17.2801V16.6314C1.42313 16.6221 1.86536 16.7509 2.2401 17.0005C2.51507 17.1913 2.84381 17.2892 3.17837 17.2801C3.51307 17.2893 3.84195 17.1912 4.11696 17.0002C4.4909 16.7507 4.9324 16.622 5.38182 16.6314C5.82036 16.6216 6.25164 16.7444 6.61912 16.9839L6.29188 17.5437C6.02345 17.3631 5.70525 17.2709 5.38182 17.2801C5.0485 17.2711 4.72102 17.3688 4.44712 17.559C4.07206 17.8093 3.62917 17.9383 3.17837 17.9287Z" fill="white"/>
<path d="M20.8193 15.6581C20.3689 15.6673 19.9264 15.5386 19.5512 15.2891C19.272 15.1066 18.9457 15.0094 18.6122 15.0094C18.2786 15.0094 17.9523 15.1066 17.6731 15.2891C17.2945 15.53 16.855 15.658 16.4063 15.658C15.9575 15.658 15.518 15.53 15.1395 15.2891C14.8606 15.1067 14.5347 15.0096 14.2015 15.0096C13.8683 15.0096 13.5424 15.1067 13.2636 15.2891C12.885 15.5301 12.4455 15.6582 11.9967 15.6582C11.548 15.6582 11.1085 15.5301 10.7299 15.2891C10.4511 15.1067 10.1252 15.0096 9.79199 15.0096C9.45882 15.0096 9.13288 15.1067 8.85404 15.2891C8.47942 15.5387 8.0373 15.6675 7.58723 15.6581C7.13716 15.6675 6.69504 15.5387 6.32042 15.2891C6.04555 15.0983 5.71693 15.0004 5.38248 15.0095C5.04813 15.0004 4.71963 15.0984 4.44485 15.2891C4.07083 15.5384 3.62941 15.6672 3.17999 15.6581C2.72982 15.6675 2.28759 15.5387 1.91285 15.2891C1.63743 15.0979 1.30807 15 0.972961 15.0095V14.3608C1.42302 14.3515 1.86513 14.4804 2.23977 14.7299C2.5149 14.9207 2.84372 15.0186 3.17837 15.0095C3.51271 15.0186 3.84121 14.9206 4.11599 14.7299C4.49002 14.4806 4.93143 14.3518 5.38085 14.3608C5.83125 14.3513 6.27375 14.4801 6.64864 14.7299C6.92361 14.9207 7.25235 15.0187 7.58691 15.0095C7.92147 15.0187 8.2502 14.9207 8.52518 14.7299C8.90372 14.4888 9.34319 14.3608 9.79199 14.3608C10.2408 14.3608 10.6803 14.4888 11.0588 14.7299C11.3377 14.9123 11.6637 15.0094 11.9969 15.0094C12.3301 15.0094 12.6561 14.9123 12.935 14.7299C13.3136 14.4888 13.753 14.3608 14.2018 14.3608C14.6506 14.3608 15.0901 14.4888 15.4686 14.7299C15.7475 14.9123 16.0735 15.0094 16.4067 15.0094C16.74 15.0094 17.066 14.9123 17.3449 14.7299C17.7238 14.4889 18.1636 14.3609 18.6126 14.3609C19.0617 14.3609 19.5015 14.4889 19.8804 14.7299C20.1598 14.9123 20.4862 15.0093 20.8198 15.0093C21.1534 15.0093 21.4798 14.9123 21.7592 14.7299C22.1343 14.4805 22.5767 14.3517 23.027 14.3608V15.0095C22.6917 15 22.3622 15.098 22.0865 15.2891C21.7116 15.5384 21.2695 15.6671 20.8193 15.6581Z" fill="white"/>
<path d="M20.8184 13.3883C20.3682 13.3975 19.926 13.2687 19.5512 13.0192C19.2761 12.8284 18.9473 12.7305 18.6126 12.7396C18.367 12.7312 18.1232 12.7835 17.9027 12.892L17.6166 12.3083C17.9263 12.1565 18.2679 12.0816 18.6126 12.09C19.0633 12.0808 19.506 12.21 19.8811 12.46C20.1607 12.6428 20.4875 12.7402 20.8216 12.7402C21.1557 12.7402 21.4825 12.6428 21.7622 12.46C22.1364 12.2111 22.5777 12.0823 23.027 12.091V12.7396C22.6924 12.7304 22.3636 12.8283 22.0884 13.0188C21.7127 13.2687 21.2695 13.3976 20.8184 13.3883Z" fill="white"/>
<path d="M16.4043 13.3881C15.9549 13.3975 15.5134 13.2688 15.1394 13.0194C14.8605 12.8369 14.5344 12.7397 14.201 12.7397C13.8677 12.7397 13.5416 12.8369 13.2626 13.0194C12.884 13.2604 12.4444 13.3884 11.9956 13.3884C11.5468 13.3884 11.1073 13.2604 10.7286 13.0194C10.4497 12.837 10.1236 12.7399 9.79037 12.7399C9.4571 12.7399 9.13105 12.837 8.8521 13.0194C8.47753 13.2685 8.03572 13.3972 7.58593 13.3881C7.13587 13.3974 6.69376 13.2686 6.31912 13.019C6.044 12.8283 5.71518 12.7304 5.38053 12.7395C5.0472 12.7305 4.71972 12.8282 4.44583 13.0184C4.07112 13.2684 3.62873 13.3975 3.17837 13.3881C2.7283 13.3974 2.28619 13.2686 1.91156 13.019C1.63643 12.8283 1.30761 12.7304 0.972961 12.7395V12.0908C1.42313 12.0815 1.86536 12.2103 2.2401 12.4599C2.51507 12.6507 2.84381 12.7486 3.17837 12.7395C3.51308 12.7487 3.84196 12.6506 4.11696 12.4596C4.4909 12.2101 4.9324 12.0814 5.38183 12.0908C5.83189 12.0815 6.27399 12.2103 6.64864 12.4599C6.92361 12.6507 7.25235 12.7486 7.58691 12.7395C7.92156 12.7486 8.25038 12.6506 8.5255 12.4599C8.90412 12.2189 9.34364 12.0908 9.79248 12.0908C10.2413 12.0908 10.6808 12.2189 11.0594 12.4599C11.3384 12.6423 11.6644 12.7394 11.9977 12.7394C12.331 12.7394 12.657 12.6423 12.936 12.4599C13.3147 12.2187 13.7543 12.0905 14.2033 12.0905C14.6523 12.0905 15.0919 12.2187 15.4706 12.4599C15.7563 12.6521 16.0952 12.7498 16.4393 12.7391C16.4644 12.7395 16.4894 12.7382 16.5143 12.7352L16.6005 13.3781C16.5354 13.3857 16.4699 13.389 16.4043 13.3881Z" fill="white"/>
<path d="M20.8193 11.1171C20.3689 11.1263 19.9264 10.9975 19.5512 10.748C19.272 10.5656 18.9457 10.4684 18.6122 10.4684C18.2786 10.4684 17.9523 10.5656 17.6731 10.748C17.2945 10.989 16.855 11.117 16.4063 11.117C15.9575 11.117 15.518 10.989 15.1395 10.748C14.8606 10.5657 14.5347 10.4686 14.2015 10.4686C13.8683 10.4686 13.5424 10.5657 13.2636 10.748C12.885 10.9891 12.4455 11.1172 11.9967 11.1172C11.548 11.1172 11.1085 10.9891 10.7299 10.748C10.4511 10.5657 10.1252 10.4686 9.79199 10.4686C9.45882 10.4686 9.13288 10.5657 8.85404 10.748C8.47942 10.9977 8.0373 11.1265 7.58723 11.1171C7.13716 11.1265 6.69504 10.9977 6.32042 10.748C6.04555 10.5573 5.71693 10.4594 5.38248 10.4685C5.04813 10.4594 4.71963 10.5573 4.44485 10.748C4.07083 10.9974 3.62941 11.1262 3.17999 11.1171C2.72982 11.1265 2.28759 10.9977 1.91285 10.748C1.63743 10.5569 1.30807 10.459 0.972961 10.4685V9.81983C1.42302 9.81053 1.86513 9.93934 2.23977 10.1889C2.5149 10.3796 2.84372 10.4776 3.17837 10.4685C3.51271 10.4776 3.84121 10.3796 4.11599 10.1889C4.49002 9.93958 4.93143 9.81078 5.38085 9.81983C5.83125 9.81027 6.27375 9.93909 6.64864 10.1889C6.92361 10.3797 7.25235 10.4777 7.58691 10.4685C7.92147 10.4777 8.2502 10.3797 8.52518 10.1889C8.90372 9.94782 9.34319 9.81975 9.79199 9.81975C10.2408 9.81975 10.6803 9.94782 11.0588 10.1889C11.3377 10.3713 11.6637 10.4684 11.9969 10.4684C12.3301 10.4684 12.6561 10.3713 12.935 10.1889C13.3136 9.94782 13.753 9.81975 14.2018 9.81975C14.6506 9.81975 15.0901 9.94782 15.4686 10.1889C15.7475 10.3713 16.0735 10.4684 16.4067 10.4684C16.74 10.4684 17.066 10.3713 17.3449 10.1889C17.7238 9.94791 18.1636 9.81991 18.6126 9.81991C19.0617 9.81991 19.5015 9.94791 19.8804 10.1889C20.1598 10.3712 20.4862 10.4683 20.8198 10.4683C21.1534 10.4683 21.4798 10.3712 21.7592 10.1889C22.1343 9.93949 22.5767 9.8107 23.027 9.81983V10.4685C22.6917 10.459 22.3622 10.557 22.0865 10.748C21.7116 10.9973 21.2695 11.1261 20.8193 11.1171Z" fill="white"/>
<path d="M16.1977 10.8423L15.5857 10.6276C15.7434 10.1748 15.8077 9.69472 15.775 9.21634C15.7423 8.73795 15.6132 8.27113 15.3954 7.84396L13.1676 3.48147C13.1456 3.43839 13.1335 3.39094 13.1322 3.34258C13.1309 3.29423 13.1405 3.2462 13.1602 3.20201C13.1798 3.15783 13.2092 3.1186 13.246 3.08721C13.2828 3.05583 13.3261 3.03307 13.3729 3.02061L17.8125 1.83682C17.9572 1.79899 18.0811 1.70555 18.1572 1.57684C18.2334 1.44813 18.2556 1.29456 18.2191 1.14954C18.1826 1.00453 18.0903 0.879793 17.9623 0.802481C17.8343 0.725169 17.6809 0.701533 17.5356 0.736716L12.1622 2.02104C12.0473 2.04818 11.9402 2.10141 11.8492 2.17659C11.7582 2.25177 11.6858 2.34688 11.6374 2.45457C11.5891 2.56226 11.5662 2.67963 11.5705 2.79758C11.5749 2.91553 11.6063 3.03091 11.6624 3.13477L13.2581 6.09909C13.2985 6.17443 13.3076 6.26271 13.2833 6.34471C13.259 6.42671 13.2033 6.4958 13.1283 6.53693L11.0689 7.67206L10.7559 7.10385L12.5338 6.12374L11.0919 3.44223C10.9887 3.2508 10.931 3.03822 10.9231 2.82091C10.9153 2.6036 10.9575 2.38739 11.0465 2.18901C11.1355 1.99062 11.269 1.81537 11.4366 1.67681C11.6042 1.53824 11.8014 1.44008 12.013 1.3899L17.3838 0.105905C17.6965 0.0268991 18.0277 0.0753364 18.3047 0.240561C18.5816 0.405786 18.7816 0.674263 18.8606 0.986932C18.9396 1.2996 18.8912 1.63085 18.7259 1.9078C18.5607 2.18476 18.2922 2.38474 17.9796 2.46374L13.9275 3.54374L15.9733 7.5485C16.2309 8.05401 16.3836 8.60642 16.4222 9.17248C16.4607 9.73854 16.3844 10.3065 16.1977 10.8423Z" fill="white"/>
<path d="M9.62226 7.73402L5.681 9.90576L5.99389 10.4736L9.93515 8.30184L9.62226 7.73402Z" fill="white"/>
<path d="M19.1351 8.68517C18.654 8.68517 18.1838 8.54252 17.7837 8.27524C17.3837 8.00796 17.072 7.62806 16.8879 7.1836C16.7038 6.73913 16.6556 6.25005 16.7494 5.7782C16.8433 5.30636 17.075 4.87294 17.4151 4.53276C17.7553 4.19257 18.1887 3.96091 18.6606 3.86705C19.1324 3.7732 19.6215 3.82137 20.066 4.00547C20.5104 4.18958 20.8903 4.50135 21.1576 4.90136C21.4249 5.30137 21.5676 5.77165 21.5676 6.25274C21.5669 6.89765 21.3104 7.51595 20.8544 7.97197C20.3983 8.428 19.78 8.68449 19.1351 8.68517ZM19.1351 4.46896C18.7823 4.46896 18.4375 4.57358 18.1441 4.76958C17.8508 4.96559 17.6221 5.24418 17.4871 5.57012C17.3521 5.89606 17.3168 6.25472 17.3856 6.60074C17.4544 6.94676 17.6243 7.2646 17.8738 7.51407C18.1233 7.76354 18.4411 7.93342 18.7871 8.00225C19.1331 8.07108 19.4918 8.03575 19.8178 7.90074C20.1437 7.76573 20.4223 7.5371 20.6183 7.24376C20.8143 6.95042 20.9189 6.60554 20.9189 6.25274C20.9183 5.77984 20.7302 5.32648 20.3958 4.99208C20.0614 4.65769 19.608 4.46956 19.1351 4.46896Z" fill="white"/>
</svg>
