<svg width="168" height="155" viewBox="0 0 168 155" fill="none" xmlns="http://www.w3.org/2000/svg">
<path d="M47.8052 73.9998C47.8052 83.9409 55.864 91.9998 65.8052 91.9998L92.8052 91.9998C95.5666 91.9998 97.8052 89.7612 97.8052 86.9998L97.8052 52.9998C97.8052 47.4769 93.328 42.9998 87.8052 42.9998L52.8052 42.9998C50.0437 42.9998 47.8052 45.2383 47.8052 47.9998L47.8052 73.9998Z" fill="#FFF1DA"/>
<path d="M96.3899 87.9411C95.0315 88.2458 93.7084 88.8097 92.5027 89.5974C89.3617 91.5994 87.534 94.4562 88.4207 95.9777C89.3074 97.4992 92.5725 97.1088 95.7135 95.1068C96.9354 94.3469 98.0209 93.3759 98.9032 92.2538C99.3127 91.7117 99.3863 91.0364 99.0911 90.5316L97.9393 88.5551C97.6462 88.0488 97.0381 87.8082 96.3899 87.9411Z" fill="#D5D6DB"/>
<path d="M88.5026 60.948C87.5177 61.1691 86.5582 61.5782 85.6839 62.1494C83.4068 63.6008 82.0808 65.6722 82.7232 66.7745C83.3656 67.8768 85.7341 67.5935 88.0109 66.1423C88.8968 65.5911 89.6839 64.8867 90.3238 64.0729C90.6203 63.68 90.6735 63.1907 90.4596 62.8248L89.6255 61.3936C89.4133 61.0266 88.9727 60.8518 88.5026 60.948Z" fill="#D5D6DB"/>
<path d="M75.6885 62.0825C75.4693 62.0581 75.2354 62.1166 75.0327 62.2462L69.684 65.6557C69.2366 65.94 69.0575 66.4873 69.2844 66.8783C69.3363 66.9679 69.4073 67.0444 69.4935 67.1034L82.6737 76.1817L100.509 64.8127L75.6885 62.0825Z" fill="#029BC5"/>
<path d="M132.065 60.7865L83.5315 91.3428L54.8191 102.774L40.1765 105.689L38.5661 102.953L119.463 52.9991C121.874 51.504 124.56 50.5858 127.248 50.3379C128.426 50.2356 129.588 50.2743 130.709 50.4526C131.703 50.6029 132.646 50.8931 133.51 51.3147C134.473 51.7924 136.308 51.8468 136.902 52.799C136.904 52.7975 138.305 57.1694 132.065 60.7865V60.7865Z" fill="#E1E6E9"/>
<path d="M84.1777 87.3077L63.1783 120.774C62.916 121.244 63.0716 121.77 63.5254 121.949C63.8039 122.059 64.1448 122.016 64.4313 121.834L69.7755 118.443C70.8034 117.79 71.7136 116.962 72.4499 116.008L113.172 68.1402L84.1777 87.3077Z" fill="#029BC5"/>
<path d="M31.1973 86.189C30.8471 86.0695 30.4303 86.1317 30.0784 86.3559L25.6604 89.1705C25.0584 89.5537 24.8185 90.2902 25.1242 90.8156C25.1825 90.9155 25.2582 91.0034 25.3489 91.0759L37.7244 100.982L50.7389 92.8505L31.1973 86.189Z" fill="#029BC5"/>
<path d="M41.8746 102.772L35.2121 112.1C35.1144 112.234 35.1373 112.403 35.2633 112.476C35.3541 112.529 35.4781 112.519 35.5789 112.452L39.7073 109.835C39.7394 109.815 39.7684 109.789 39.7924 109.76L49.5273 97.9261L41.8746 102.772Z" fill="#029BC5"/>
<path d="M129.912 50.8568C128.757 50.6718 127.56 50.6327 126.347 50.7397C125.166 52.3908 124.411 54.2453 124.157 56.1184C124.138 56.4946 124.442 56.7653 124.835 56.723C124.957 56.7097 125.078 56.6667 125.188 56.5979L132.796 51.7521C131.906 51.3139 130.935 51.0125 129.912 50.8568Z" fill="#029BC5"/>
<path d="M113.332 59.7671L118.3 56.6283L122.926 64.4956L117.958 67.6343L113.332 59.7671Z" fill="#D5D6DB"/>
<path d="M110.207 62.8778C109.608 63.2572 109.369 63.986 109.673 64.5056L110.165 65.3473C110.489 65.8536 111.228 65.9424 111.816 65.5455C112.376 65.1675 112.602 64.4808 112.332 63.9739L111.84 63.1322C111.536 62.613 110.805 62.4991 110.207 62.8778V62.8778Z" fill="#3A556A"/>
<path d="M105.742 65.6503C105.144 66.0296 104.904 66.7585 105.208 67.2781L105.7 68.1198C106.024 68.6261 106.763 68.7149 107.352 68.318C107.912 67.94 108.137 67.2532 107.868 66.7464L107.375 65.9046C107.072 65.3856 106.341 65.2717 105.742 65.6503V65.6503Z" fill="#3A556A"/>
<path d="M101.277 68.4236C100.679 68.8034 100.44 69.5314 100.744 70.0505L101.236 70.8922C101.56 71.3985 102.299 71.4873 102.887 71.0904C103.447 70.7124 103.673 70.0257 103.403 69.5188L102.911 68.6771C102.607 68.1575 101.875 68.044 101.277 68.4236V68.4236Z" fill="#3A556A"/>
<path d="M96.8122 71.196C96.2142 71.5759 95.9757 72.3039 96.2793 72.823L96.7715 73.6647C97.0953 74.171 97.8346 74.2598 98.4229 73.8629C98.9829 73.4849 99.2084 72.7982 98.9387 72.2913L98.4465 71.4495C98.1425 70.9301 97.4109 70.8166 96.8122 71.196V71.196Z" fill="#3A556A"/>
<path d="M92.3483 73.9687C91.75 74.3487 91.5113 75.077 91.8151 75.5963L92.3076 76.4384C92.6112 76.9575 93.3424 77.071 93.9409 76.6918C94.5394 76.3126 94.7784 75.5843 94.4748 75.0652L93.9823 74.2231C93.6795 73.7035 92.9485 73.5893 92.3496 73.9679C92.3491 73.9682 92.3488 73.9683 92.3483 73.9687Z" fill="#3A556A"/>
<path d="M87.8839 76.7411C87.2856 77.1212 87.0469 77.8494 87.3507 78.3688L87.8431 79.2109C88.1468 79.73 88.878 79.8434 89.4765 79.4642C90.075 79.085 90.314 78.3568 90.0104 77.8377L89.5179 76.9956C89.2151 76.476 88.484 76.3618 87.8852 76.7403C87.8847 76.7406 87.8842 76.741 87.8839 76.7411Z" fill="#3A556A"/>
<path d="M83.4193 79.5136C82.821 79.8936 82.5823 80.6219 82.886 81.1412L83.3785 81.9833C83.6829 82.5019 84.4145 82.6142 85.0123 82.2345C85.6091 81.8555 85.8477 81.1288 85.5455 80.6103L85.053 79.7682C84.7495 79.2487 84.0183 79.1347 83.4193 79.5136Z" fill="#3A556A"/>
<path d="M78.9547 82.286C78.3564 82.6661 78.1177 83.3944 78.4214 83.9137L78.9139 84.7558C79.2183 85.2744 79.9499 85.3867 80.5477 85.007C81.1445 84.628 81.3831 83.9013 81.0809 83.3827L80.5884 82.5406C80.2849 82.0211 79.5537 81.9071 78.9547 82.286Z" fill="#3A556A"/>
<path d="M74.4904 85.0585C73.8921 85.4385 73.6534 86.1668 73.9572 86.6861L74.4496 87.5282C74.754 88.0468 75.4856 88.1591 76.0834 87.7794C76.6803 87.4004 76.9188 86.6737 76.6166 86.1552L76.1241 85.3131C75.8204 84.7938 75.0891 84.6798 74.4904 85.0585Z" fill="#3A556A"/>
<path d="M70.0246 87.8317C69.4261 88.2109 69.1871 88.9391 69.4907 89.4583L69.4913 89.4594L69.9838 90.3015C70.2882 90.8201 71.0198 90.9324 71.6176 90.5527C72.2144 90.1736 72.453 89.4469 72.1508 88.9284L71.6583 88.0863C71.3548 87.5668 70.6236 87.4528 70.0246 87.8317Z" fill="#3A556A"/>
<path d="M65.5614 90.6035C64.9629 90.9826 64.7239 91.7109 65.0275 92.23L65.0281 92.2311L65.5206 93.0731C65.825 93.5918 66.5566 93.7041 67.1545 93.3244C67.7513 92.9453 67.9898 92.2186 67.6876 91.7001L67.1951 90.858C66.8914 90.3387 66.1601 90.2247 65.5614 90.6035Z" fill="#3A556A"/>
</svg>
